<svg xmlns="http://www.w3.org/2000/svg" viewBox="0 0 46.246 46.246">
  <defs>
    <style>
      .cls-1 {
        fill: #c6c3c3;
      }
    </style>
  </defs>
  <path id="brightness" class="cls-1" d="M5.364,25.748H3.082A2.08,2.08,0,0,1,.8,23.923,2.08,2.08,0,0,1,3.082,22.1H5.364a2.08,2.08,0,0,1,2.282,1.825A2.08,2.08,0,0,1,5.364,25.748Zm18.559-18.1a2.08,2.08,0,0,0,1.825-2.282V3.082A2.08,2.08,0,0,0,23.923.8,2.08,2.08,0,0,0,22.1,3.082V5.364A2.08,2.08,0,0,0,23.923,7.646Zm-15.517,3.5c.913.913,2.282,1.065,2.89.3a2.009,2.009,0,0,0-.3-2.89A7.973,7.973,0,0,0,9.471,6.885h0c-.913-.913-2.282-1.065-2.89-.3a2.153,2.153,0,0,0,.3,2.89C7.037,9.775,8.254,10.84,8.406,11.144Zm31.033,0,1.673-1.673c.913-.913,1.065-2.282.3-2.89a2.009,2.009,0,0,0-2.89.3L36.854,8.558c-.913.913-1.065,2.282-.3,2.89C37.158,12.209,38.527,12.057,39.44,11.144ZM36.7,23.923A12.778,12.778,0,1,1,23.923,11.144,12.662,12.662,0,0,1,36.7,23.923Zm-12.778-9.28a9.28,9.28,0,0,0,0,18.559ZM44.764,22.1H42.482A2.08,2.08,0,0,0,40.2,23.923a2.08,2.08,0,0,0,2.282,1.825h2.282a2.08,2.08,0,0,0,2.282-1.825C47.046,22.858,46.133,22.1,44.764,22.1ZM8.406,36.7h0L6.733,38.375c-.913.913-1.065,2.282-.3,2.89a2.153,2.153,0,0,0,2.89-.3l1.673-1.673c.913-.913,1.065-2.282.3-2.89C10.688,35.637,9.319,35.789,8.406,36.7Zm31.033,0c-.913-.913-2.282-1.065-2.89-.3a2.009,2.009,0,0,0,.3,2.89h0l1.673,1.673c.913.913,2.282,1.065,2.89.3a2.009,2.009,0,0,0-.3-2.89A17.355,17.355,0,0,1,39.44,36.7ZM23.923,40.2A2.08,2.08,0,0,0,22.1,42.482v2.282a2.08,2.08,0,0,0,1.825,2.282,2.08,2.08,0,0,0,1.825-2.282V42.482A2.08,2.08,0,0,0,23.923,40.2Z" transform="translate(-0.8 -0.8)"/>
</svg>
