<svg xmlns="http://www.w3.org/2000/svg" viewBox="0 0 45.522 45.522"><defs><style>.a{fill:#c6c3c3;}</style></defs><path class="a" d="M43.246,20.937H41.015a2.087,2.087,0,0,0-2.276,1.824,2.085,2.085,0,0,0,2.276,1.818h2.231a2.086,2.086,0,0,0,2.276-1.818A2.091,2.091,0,0,0,43.246,20.937ZM22.761,10.242A12.518,12.518,0,1,0,35.279,22.761,12.479,12.479,0,0,0,22.761,10.242Zm0,21.623a9.1,9.1,0,1,1,9.1-9.1A9.1,9.1,0,0,1,22.761,31.865Zm-15.933-9.1a2.091,2.091,0,0,0-2.276-1.824H2.276A2.087,2.087,0,0,0,0,22.761a2.085,2.085,0,0,0,2.276,1.818H4.552A2.088,2.088,0,0,0,6.828,22.761ZM22.761,6.828a2.085,2.085,0,0,0,1.818-2.276V2.276A2.086,2.086,0,0,0,22.761,0a2.088,2.088,0,0,0-1.824,2.276V4.552A2.087,2.087,0,0,0,22.761,6.828Zm0,31.865a2.088,2.088,0,0,0-1.824,2.276v2.276a2.087,2.087,0,0,0,1.824,2.276,2.085,2.085,0,0,0,1.818-2.276V40.969A2.086,2.086,0,0,0,22.761,38.693ZM39.524,8.572a2.088,2.088,0,0,0,.323-2.9A2.085,2.085,0,0,0,36.952,6c-.246.243-1.35,1.347-1.593,1.59a2.088,2.088,0,0,0-.323,2.9,2.088,2.088,0,0,0,2.9-.326C38.177,9.917,39.279,8.816,39.524,8.572ZM7.588,35.355l-1.593,1.6a2.083,2.083,0,0,0-.323,2.893,2.083,2.083,0,0,0,2.895-.321c.246-.243,1.35-1.347,1.593-1.59a2.09,2.09,0,0,0,.323-2.9,2.088,2.088,0,0,0-2.895.323ZM8.569,6a2.088,2.088,0,0,0-2.9-.326,2.093,2.093,0,0,0,.321,2.9c.246.243,1.35,1.347,1.593,1.59a2.085,2.085,0,0,0,2.895.326,2.09,2.09,0,0,0-.321-2.9C9.917,7.343,8.814,6.239,8.569,6ZM35.356,37.934c.246.243,1.35,1.347,1.593,1.59a1.865,1.865,0,1,0,2.572-2.572l-1.59-1.59a2.09,2.09,0,0,0-2.9-.326,2.087,2.087,0,0,0,.326,2.9Z"/></svg>