<svg version="1" xmlns="http://www.w3.org/2000/svg" width="853.333" height="853.333" viewBox="0 0 640.000000 640.000000"><path d="M296.1 164.2c-.6 9.5-1.4 20.9-1.7 25.3-.2 4.4-.6 9.6-.9 11.5-1.2 9.5-1.7 27.8-.7 28.4 3.1 1.9 3.9-.8 7.6-24.2 7.4-46.6 8.7-55.6 8.2-56.7-.2-.6-2.8-1.2-5.8-1.4l-5.5-.2-1.2 17.3z"/><path d="M448.9 164.4c-.2.2-2 .6-3.9.9-16.5 2.2-48.8 16-68.5 29.3-15.6 10.5-33.1 26.3-46.7 42.2-2.2 2.6-5.2 4.8-7.8 5.7-5.2 1.8-4.8 1.8-4.6-.1.1-1.9-6.6-4.6-16-6.4-27-5.1-56.6 10.1-68.8 35.5-5.1 10.4-6 14.7-6 28.5 0 11.2.2 13.3 2.7 19.9 3 8.3 6.5 14.6 11.2 20.6l3.2 4-.7 18-.6 18-9.3 16.5c-5.1 9.1-10.6 18.7-12.1 21.5-1.5 2.7-3.9 7-5.4 9.5-3.4 5.9-3.2 7.2 1 9.3 6.7 3.3 5.5 5 23.5-35.8 3.3-7.6 4.5-9.4 4.7-7.5.2 1.4 1.4 6.8 2.7 12.2 7.5 29.9 25.8 55 51.8 70.8 35.6 21.6 93.3 23.5 133.1 4.5 27.2-13 42.6-32.4 42.6-53.4 0-9.3-2.3-15.5-8-21.2-6.9-6.9-13.8-9.2-26-8.7-12.7.6-18 3.2-31.4 15.7-5.6 5.2-12.8 11.2-16 13.3-14.3 9.2-31.9 10.3-46.6 2.8-6.7-3.4-15.6-12.9-19-20.2-5.1-10.9-6.3-26.7-2.3-30 1.3-1 15.2-1.4 70.7-1.8 67.7-.5 69.2-.5 73.1-2.6 5.7-3 8.2-8.5 9.6-21.2 2-18.7-1.9-43.2-9.4-59.5-9.8-21.2-28-39.2-49.2-48.7-13.2-6-24.2-8.4-48.5-10.8l-7.5-.7 15-15c22.1-22.2 41.6-37.2 65.5-50.3 5.5-3 6.4-3.8 5.2-4.6-.5-.3-1.1-.4-1.3-.2zm-67.7 127.3C394 297.8 401 307.1 401 318c0 3.1-.5 6.1-1.2 6.8-1.6 1.6-69 1.7-71.9.2-2.4-1.3-2.6-7.4-.4-12.7 2.3-5.4 8.8-13.5 13.8-17 11.2-8.1 27.4-9.5 39.9-3.6zM201.3 171.8c-2.4 1.5-4.3 3.3-4.3 4.1 0 .7 1.8 3.5 4 6.1 2.2 2.6 4 5.2 4 5.8 0 .5.6 1.5 1.4 2.2.8.6 7 8.8 13.8 18.2 16.1 22.2 15.6 21.6 20.6 28.7 4.6 6.6 6.6 8.1 8.5 6.2.9-.9.8-1.7-.3-3.6-2.9-4.7-11.5-19-12.5-20.7-5.5-9.7-30-49.8-30.4-49.8-.4 0-2.5 1.3-4.8 2.8zM255.7 183.7c-4.8.7-4.8.9 1.8 22.3 3.5 11.3 6.3 21.2 7 24.2.4 2.3 1.1 2.8 3.5 2.8 2.3 0 3-.5 3-1.9 0-3.9-6.2-41.5-7.6-46.4-.5-1.7-1.8-1.9-7.7-1z"/><path d="M330.1 197.2c-7.1 15.6-15.1 34.4-15.1 35.6 0 1 3.8 3.2 5.5 3.2.3 0 1.6-2.1 3-4.8 1.4-2.6 3.6-6.5 4.9-8.7 1.3-2.2 4.1-7.2 6.1-11 2.1-3.9 4.8-8.6 6.1-10.5 1.3-1.9 2.4-4 2.4-4.7 0-1.2-6.9-5.3-9-5.3-.6 0-2.4 2.8-3.9 6.2zM188.6 229c-1.4 2.2-2.6 4.3-2.6 4.7 0 .5 2.6 2.4 5.8 4.4 3.1 2 13 8.5 21.9 14.4 13.9 9.1 16.5 10.6 17.8 9.5.9-.7 1.5-2.1 1.3-3-.3-1.9-38.4-34-40.3-34-.7 0-2.4 1.8-3.9 4zM140.3 252.2c-1.4 2-3.5 8.9-2.9 9.5.6.6 82.4 21.3 84.4 21.3.8 0 1.2-.9 1-2.1-.3-1.8-3.1-3.1-18.3-8.3-9.9-3.4-22.7-7.9-28.5-9.9-19.3-6.7-34-11.7-34.5-11.7-.1 0-.7.6-1.2 1.2zM165.3 302.5c-.6 1.8.2 9.3 1.1 10.3.4.3 6.6-.2 13.9-1.2 7.2-1 17.9-2.2 23.7-2.7 14.5-1.4 16.5-2 16.5-5v-2.4l-27.3-.3c-24-.2-27.3 0-27.9 1.3zM209 330c-6.9 2.8-16.8 6.7-22 8.7-5.2 2-10.8 4.2-12.5 4.9-3.4 1.4-12.7 4.8-13.5 5-.3 0-1.8.6-3.5 1.4-1.6.7-5.2 2-7.8 3-6.8 2.4-7.1 2.9-4.8 8.3 1.1 2.6 2.3 4.7 2.7 4.7.8 0 4.7-1.8 29.9-14 12.1-5.8 28-13.5 35.3-17 9.5-4.6 13.2-6.8 13-7.9-.5-2.8-4-2.2-16.8 2.9zM231.4 346.3c-2.2 1.8-6.9 5.7-10.5 8.7-3.5 3.1-10.8 9.3-16.1 13.9-5.4 4.6-9.8 8.9-9.8 9.5 0 .7 1.6 2.8 3.6 4.7l3.5 3.4 8.7-9c18.7-19.4 28.2-29.7 28.2-30.4 0-.4-.8-1.5-1.8-2.4-1.6-1.5-2-1.4-5.8 1.6z"/></svg>